<?xml version="1.0" encoding="UTF-8"?>
<svg width="20px" height="20px" viewBox="0 0 20 20" version="1.1" xmlns="http://www.w3.org/2000/svg" xmlns:xlink="http://www.w3.org/1999/xlink">
    <!-- Generator: Sketch 53 (72520) - https://sketchapp.com -->
    <title>Icons/EmberJs No BG</title>
    <desc>Created with Sketch.</desc>
    <defs>
        <rect id="path-1" x="0" y="0" width="20" height="20"></rect>
    </defs>
    <g id="Icons/EmberJs-No-BG" stroke="none" stroke-width="1" fill="none" fill-rule="evenodd">
        <g id="IndustrySpecific">
            <mask id="mask-2" fill="white">
                <use xlink:href="#path-1"></use>
            </mask>
            <g id="Mask"></g>
        </g>
        <g id="Group-3" transform="translate(2.000000, 4.000000)" fill="#121212">
            <path d="M6.44807767,6.18191845 C6.52885437,5.19861748 6.79293204,4.27745243 7.37079612,3.46347184 C7.57429126,3.1760932 7.80885437,2.91822913 8.1008932,2.71939417 C8.45196117,2.48172427 8.8247767,2.28910291 9.25817476,2.48017087 C9.60458252,2.63240388 9.83293204,3.12483107 9.82516505,3.76483107 C9.80963107,4.26502524 9.55176699,4.79473398 9.1416699,5.24521942 C8.53584466,5.91162718 7.7871068,6.35900583 6.91720388,6.58735534 C6.4575534,6.70852039 6.40924272,6.64949126 6.44807767,6.18191845 M15.7902136,8.18580194 C15.5540971,7.91240388 15.3024466,7.64987961 15.0399223,7.40288932 C14.8131262,7.19007379 14.5474951,7.1807534 14.2973981,7.36871456 C13.9882718,7.60172427 13.688466,7.84716117 13.3855534,8.08638447 C13.2768155,8.15162718 13.1649709,8.2153165 13.0577864,8.28521942 C12.0900194,8.91745243 11.0787573,9.45803495 9.95875728,9.76250097 C9.20225243,9.96754951 8.43642718,10.0685204 7.65972816,9.89298641 C7.27448544,9.80599612 6.96691262,9.60560777 6.81312621,9.22347184 C6.70283495,8.94852039 6.72768932,8.76521942 7.0663301,8.63628738 C8.30749515,8.16094757 9.44302913,7.4976466 10.4418641,6.6153165 C11.2201165,5.92560777 11.8632233,5.12871456 12.0853592,4.08949126 C12.3168155,3.00366602 12.2764272,1.94424854 11.4391456,1.08055922 C10.2958447,-0.100023301 8.36497087,-0.347013592 6.81312621,0.50735534 C5.51759223,1.22036505 4.72380583,2.35745243 4.20963107,3.71356893 C4.15526214,3.82852039 4.09312621,3.94036505 4.04807767,4.0599767 C3.75293204,4.83667573 3.59293204,5.64599612 3.47332039,6.46463689 C3.45312621,6.60444272 3.45778641,6.74890874 3.24963107,6.75978252 C2.65001942,6.79395728 2.06438835,6.79085049 1.53623301,6.42890874 C0.966135922,6.03745243 0.694291262,6.09803495 0.332349515,6.67279223 C0.248466019,6.80327767 0.172349515,6.9399767 0.113320388,7.08133592 C-0.138330097,7.67162718 0.0263300971,8.04599612 0.635262136,8.25881165 C1.43526214,8.5368699 2.26337864,8.66114175 3.10361165,8.72017087 C3.32264078,8.73415146 3.42361165,8.79318058 3.47176699,9.04638447 C3.83370874,10.9461903 5.17429126,12.3318214 6.9855534,12.6052194 C9.31720388,12.9562874 11.3894369,12.2137631 13.3187573,10.9663845 C13.415068,10.9508505 13.4880777,10.9011417 13.544,10.8234718 C14.3937087,10.3124039 15.1144854,9.65065631 15.7808932,8.92521942 C15.9921553,8.6953165 15.9952621,8.42347184 15.7902136,8.18580194" id="Fill-1"></path>
        </g>
    </g>
</svg>