<?xml version="1.0" encoding="UTF-8"?>
<svg width="30px" height="29px" viewBox="0 0 30 29" version="1.1" xmlns="http://www.w3.org/2000/svg" xmlns:xlink="http://www.w3.org/1999/xlink">
    <!-- Generator: sketchtool 52.5 (67469) - http://www.bohemiancoding.com/sketch -->
    <title>F3D4DC24-F12C-4D59-A4F3-2D83D9D0E862</title>
    <desc>Created with sketchtool.</desc>
    <g id="Page-1" stroke="none" stroke-width="1" fill="none" fill-rule="evenodd" opacity="0.200000003">
        <g id="Technology-Dashboard-Copy" transform="translate(-651.000000, -1067.000000)" fill="#000000">
            <g id="noun_Star_125124" transform="translate(650.000000, 1067.000000)">
                <path d="M17.0930818,0.671695257 L20.0641721,9.2774696 C20.2152953,9.57971606 20.5070419,9.78896361 20.8445379,9.83733805 L29.9531814,9.89808734 C30.9536697,10.0417107 31.353415,11.2559465 30.6292985,11.9526883 L23.3570086,17.4726237 C23.1128864,17.707746 23.0011377,18.046742 23.058887,18.3786131 L25.716856,26.8816387 C25.887854,27.8656272 24.8419912,28.6159934 23.9468767,28.1513738 L16.481464,23.0979329 C16.1795925,22.9411848 15.8188467,22.9411848 15.5166003,23.0979329 L8.05118759,28.1517488 C7.15607306,28.6163684 6.11021029,27.8660022 6.28120829,26.8820137 L8.9391772,18.3789881 C8.99692652,18.047117 8.88555283,17.708121 8.64105569,17.4729987 L1.36876575,11.9530633 C0.644649221,11.2563214 1.04439454,10.0420857 2.04488284,9.89846233 L11.1535263,9.83771304 C11.4910224,9.78933861 11.7831439,9.57971606 11.9338922,9.27784459 L14.9049824,0.672070253 C15.3527272,-0.223794268 16.6457121,-0.223794268 17.0930818,0.671695257 Z" id="Path"></path>
            </g>
        </g>
    </g>
</svg>