<?xml version="1.0" encoding="UTF-8"?>
<svg width="48px" height="13px" viewBox="0 0 48 13" version="1.1" xmlns="http://www.w3.org/2000/svg" xmlns:xlink="http://www.w3.org/1999/xlink">
    <!-- Generator: sketchtool 52.5 (67469) - http://www.bohemiancoding.com/sketch -->
    <title>0FCA789D-A156-4628-8B7D-838779CF447A</title>
    <desc>Created with sketchtool.</desc>
    <g id="Page-1" stroke="none" stroke-width="1" fill="none" fill-rule="evenodd" opacity="0.200000003">
        <g id="Technology-Dashboard-Copy" transform="translate(-1206.000000, -224.000000)" fill="#000000">
            <g id="noun_ratings_2028880" transform="translate(1206.000000, 224.000000)">
                <g id="Group">
                    <path d="M13.2102857,4.96836364 L8.80114286,4.30536364 C8.708,4.29177273 8.628,4.23090909 8.58628571,4.14404545 L6.61428571,0.013 L4.64285714,4.14404545 C4.60171429,4.23090909 4.52114286,4.29177273 4.428,4.30536364 L0.0188571429,4.96836364 L3.20914286,8.1835 C3.27657143,8.25145455 3.30742857,8.34954545 3.29142857,8.44527273 L2.53828571,12.987 L6.48171429,10.8425909 C6.52342857,10.8195455 6.56914286,10.8077273 6.61485714,10.8077273 C6.66057143,10.8077273 6.70628571,10.8195455 6.748,10.8425909 L10.692,12.987 L9.93828571,8.44527273 C9.92285714,8.34954545 9.95314286,8.25145455 10.0205714,8.1835 L13.2102857,4.96836364 Z" id="Path"></path>
                    <path d="M30.596,4.96836364 L26.1862857,4.30536364 C26.0937143,4.29177273 26.012,4.23090909 25.9714286,4.14404545 L24,0.0124090909 L22.028,4.14345455 C21.9868571,4.23031818 21.9062857,4.29118182 21.8131429,4.30477273 L17.404,4.96777273 L20.5942857,8.18290909 C20.6617143,8.25086364 20.6925714,8.34895455 20.6765714,8.44468182 L19.9234286,12.9864091 L23.8668571,10.842 C23.9085714,10.8189545 23.9542857,10.8071364 24,10.8071364 C24.0457143,10.8071364 24.0914286,10.8189545 24.1325714,10.842 L28.076,12.9864091 L27.3228571,8.44468182 C27.308,8.34895455 27.3382857,8.25086364 27.4062857,8.18290909 L30.596,4.96836364 Z" id="Path"></path>
                    <path d="M44.7908571,8.18409091 L47.9811429,4.96895455 L43.5714286,4.30595455 C43.4788571,4.29236364 43.3971429,4.2315 43.3565714,4.14463636 L41.3851429,0.0135909091 L39.4131429,4.14463636 C39.372,4.2315 39.2908571,4.29236364 39.1988571,4.30595455 L34.7891429,4.96895455 L37.9794286,8.18409091 C38.0474286,8.25204545 38.0782857,8.35013636 38.0628571,8.44586364 L37.3097143,12.9875909 L41.2525714,10.8431818 C41.2937143,10.8201364 41.3394286,10.8083182 41.3851429,10.8083182 C41.4308571,10.8083182 41.4765714,10.8201364 41.5177143,10.8431818 L45.4605714,12.9875909 L44.7074286,8.44586364 C44.6925714,8.35013636 44.7234286,8.25204545 44.7908571,8.18409091 Z" id="Path"></path>
                </g>
            </g>
        </g>
    </g>
</svg>