<?xml version="1.0" encoding="UTF-8"?>
<svg width="30px" height="30px" viewBox="0 0 30 30" version="1.1" xmlns="http://www.w3.org/2000/svg" xmlns:xlink="http://www.w3.org/1999/xlink">
    <!-- Generator: sketchtool 52.5 (67469) - http://www.bohemiancoding.com/sketch -->
    <title>99BFC86B-4578-4767-8AFB-4CF577263EF2</title>
    <desc>Created with sketchtool.</desc>
    <g id="Page-1" stroke="none" stroke-width="1" fill="none" fill-rule="evenodd" opacity="0.200000003">
        <g id="Technology-Dashboard-Copy" transform="translate(-1220.000000, -1067.000000)" fill="#000000">
            <g id="noun_group_125114" transform="translate(1220.000000, 1067.000000)">
                <g id="Group">
                    <path d="M23.5184211,16.9230769 C22.0776316,17.8038462 20.3684211,18.3115385 18.5368421,18.3115385 C16.7092105,18.3115385 15.0039474,17.8076923 13.5671053,16.9307692 C13.1842105,17.0538462 12.8131579,17.1961538 12.4539474,17.3615385 C9.28815789,18.8230769 7.10526316,21.9153846 7.10526316,25.4884615 L7.10526316,28.8730769 C7.10526316,29.4961538 7.63421053,30 8.28947368,30 L28.8157895,30 C29.4710526,30 30,29.4961538 30,28.8730769 L30,25.4884615 C30,21.5 27.2842105,18.1153846 23.5184211,16.9230769 Z" id="Path"></path>
                    <path d="M9.03947368,17.7538462 C8.66447368,17.8192308 8.27763158,17.8538462 7.88289474,17.8538462 C6.62368421,17.8538462 5.44736842,17.4961538 4.45657895,16.8730769 C1.86710526,17.7230769 0,20.1230769 0,22.95 L0,25.3538462 C0,25.7961538 0.363157895,26.1538462 0.817105263,26.1538462 L5.52631579,26.1538462 L5.52631579,25.4884615 C5.52631579,22.4846154 6.84473684,19.7115385 9.03947368,17.7538462 Z" id="Path"></path>
                    <path d="M18.5368421,16.2846154 C22.5631579,16.2846154 25.8394737,13.0961538 25.8394737,9.16923077 L25.8394737,7.11538462 C25.8394737,3.19230769 22.5631579,0 18.5368421,0 C14.5105263,0 11.2342105,3.19230769 11.2342105,7.11538462 L11.2342105,9.16923077 C11.2342105,13.0961538 14.5105263,16.2846154 18.5368421,16.2846154 Z" id="Path"></path>
                    <path d="M7.88368421,15.9219231 C9.29723684,15.9219231 10.575,15.3461538 11.4903947,14.4230769 C10.3377632,12.9653846 9.65486842,11.1461538 9.65486842,9.16923077 L9.65486842,7.11538462 C9.65486842,6.40038462 9.74565789,5.70423077 9.91539474,5.03923077 C9.29328947,4.76846154 8.60684211,4.61538462 7.88368421,4.61538462 C5.10671053,4.61538462 2.84723684,6.83192308 2.84723684,9.55576923 L2.84723684,10.9819231 C2.84763158,13.7080769 5.10710526,15.9219231 7.88368421,15.9219231 Z" id="Path"></path>
                </g>
            </g>
        </g>
    </g>
</svg>