<?xml version="1.0" encoding="UTF-8"?>
<svg width="22px" height="27px" viewBox="0 0 22 27" version="1.1" xmlns="http://www.w3.org/2000/svg" xmlns:xlink="http://www.w3.org/1999/xlink">
    <!-- Generator: sketchtool 52.5 (67469) - http://www.bohemiancoding.com/sketch -->
    <title>199FC138-712B-433D-8742-348F5538DB38</title>
    <desc>Created with sketchtool.</desc>
    <g id="Page-1" stroke="none" stroke-width="1" fill="none" fill-rule="evenodd" opacity="0.200000003">
        <g id="Technology-Dashboard-Copy" transform="translate(-850.000000, -217.000000)" fill="#000000">
            <g id="noun_achievement_1254313" transform="translate(850.000000, 217.000000)">
                <g id="Group">
                    <path d="M21.5215195,10.5980576 L18.4195114,6.6270737 L21.5765061,2.58458712 C21.7085007,2.41956028 21.7305222,2.19407502 21.636998,2.00706028 C21.5490128,1.82007909 21.3564926,1.6990616 21.14749,1.6990616 L8.36898651,1.6990616 L8.36898651,0.550419595 C8.36898651,0.246415675 8.12299043,0.000419595 7.81898651,0.000419595 C7.51498259,0.000419595 7.26898651,0.246415675 7.26898651,0.550419595 L7.26898651,20.0470871 L4.93900605,20.0470871 C3.89949802,20.0470871 3.05801546,20.8885696 3.05801546,21.9280777 L3.05801546,22.3515884 L12.5785141,22.3515884 L12.5785141,21.9280777 C12.5785141,20.8885696 11.736998,20.0470871 10.69749,20.0470871 L8.36898656,20.0470871 L8.36898656,11.5605576 L21.14749,11.5605576 C21.14749,11.5605576 21.1529954,11.5605576 21.1585007,11.5605576 C21.460994,11.5605576 21.7085007,11.3130844 21.7085007,11.0105576 C21.7085007,10.8455643 21.636998,10.7025589 21.5215195,10.5980576 Z" id="Path"></path>
                    <path d="M0.748008745,23.4515884 C0.46199802,23.8640884 0.29149934,24.3645736 0.29149934,24.9035629 L0.29149934,25.8495804 C0.29149934,26.1520736 0.53900605,26.3995804 0.84149934,26.3995804 L14.800502,26.3995804 C15.1029953,26.3995804 15.350502,26.1520736 15.350502,25.8495804 L15.350502,24.9035629 C15.350502,24.3645736 15.1800034,23.8640884 14.8939926,23.4515884 L0.748008745,23.4515884 Z" id="Path"></path>
                </g>
            </g>
        </g>
    </g>
</svg>