<svg xmlns="http://www.w3.org/2000/svg" width="26" height="26" viewBox="0 0 26 26">
  <path d="M25.7761544,12.1894078 L24.4466475,9.88312027 L24.4466475,7.30550483 C24.4466475,6.73571615 24.1481868,6.19306027 23.6326637,5.89459953 L21.4077746,4.61935821 L20.0782677,2.3402035 C19.7798069,1.8518132 19.2642839,1.52621967 18.6673624,1.52621967 L16.0354813,1.52621967 L13.7834594,0.223845552 C13.2950691,-0.0746151839 12.6710149,-0.0746151839 12.1554918,0.223845552 L9.90346987,1.52621967 L7.32585442,1.52621967 C6.75606574,1.52621967 6.21340986,1.82468041 5.91494913,2.3402035 L4.61257501,4.59222541 L2.3062875,5.89459953 C1.81789721,6.19306027 1.49230368,6.70858336 1.49230368,7.30550483 L1.49230368,9.96451865 L0.217062353,12.1894078 C0.0813983825,12.4336029 0,12.7320637 0,13.0033916 C0,13.2747195 0.0813983825,13.5731803 0.217062353,13.8173754 L1.49230368,16.0151318 L1.49230368,18.6741456 C1.49230368,19.2439343 1.79076441,19.7865901 2.3062875,20.0850509 L4.61257501,21.4145578 L5.91494913,23.6665797 C6.21340986,24.15497 6.72893295,24.4805635 7.32585442,24.4805635 L9.90346987,24.4805635 L12.1554918,25.7829376 C12.3996869,25.9186016 12.6981477,26 12.9694756,26 C13.2408035,26 13.5392643,25.9186016 13.7834594,25.7829376 L16.0354813,24.4805635 L18.6673624,24.4805635 C19.2371511,24.4805635 19.7798069,24.1821028 20.0782677,23.6665797 L21.4077746,21.387425 L23.6326637,20.1121837 C24.121054,19.8137229 24.4466475,19.2981998 24.4466475,18.7012784 L24.4466475,16.1236629 L25.7761544,13.8173754 C26.0746152,13.3018523 26.0746152,12.6777981 25.7761544,12.1894078 Z M11.5043047,17.3989043 L7.19019045,13.08479 L8.76389251,11.5110879 L11.5043047,14.2515001 L17.1750587,8.58074615 L18.7487608,10.1544482 L11.5043047,17.3989043 Z" opacity=".2"/>
</svg>
