<svg xmlns="http://www.w3.org/2000/svg" width="17" height="16" viewBox="0 0 17 16">
  <g fill="#313131" fill-rule="evenodd" transform="translate(0 .5)">
    <path fill-rule="nonzero" d="M9.55511709,7.54518847 C9.5551171,8.08310137 9.2744073,8.58015339 8.81872834,8.84910985 C8.36304939,9.1180663 7.80162976,9.1180663 7.3459508,8.84910985 C6.89027185,8.58015339 6.60956204,8.08310137 6.60956206,7.54518847 C6.60956206,6.71364719 7.26894701,6.03954979 8.08233957,6.03954979 C8.89573213,6.03954979 9.55511709,6.71364719 9.55511709,7.54518847 Z"/>
    <path fill-rule="nonzero" d="M8.08233957,13.0818096 C9.23864232,14.231181 10.3783209,14.9109844 11.2969597,14.9109844 C11.5980418,14.9109844 11.8831153,14.8461513 12.1201635,14.7007489 C12.9433674,14.2148153 13.2444494,13.0006109 12.9593758,11.2683711 C12.9119662,10.9605712 12.8485481,10.6534008 12.7691215,10.3292352 C13.0855963,10.2323003 13.3706699,10.1347359 13.6557434,10.037801 C15.2553572,9.40646504 16.1419791,8.53216232 16.1419791,7.5772903 C16.1419791,6.60605264 15.2553572,5.73174991 13.6557434,5.1167796 C13.3706699,5.00347903 13.0855963,4.9065441 12.7691215,4.82534536 C12.8485481,4.50180929 12.9119662,4.19400941 12.9593758,3.88620953 C13.2284409,2.12186788 12.9279746,0.891297812 12.1041551,0.405364259 C11.8664912,0.259961862 11.5814176,0.195128758 11.2809513,0.195128758 C10.3783209,0.195128758 9.22201816,0.874932174 8.06633112,2.0243035 C6.92603682,0.874932174 5.78574253,0.195128758 4.86771942,0.195128758 C4.56663739,0.195128758 4.28156382,0.259961862 4.0445156,0.405364259 C3.22131178,0.891297812 2.92022975,2.10550225 3.20530333,3.83774206 C3.25271297,4.14554194 3.31613107,4.45271237 3.39555761,4.77687789 C3.07908285,4.87381282 2.79400927,4.9713772 2.5089357,5.06831213 C0.909321994,5.69964808 0.0227000788,6.57395081 0.0227000788,7.52882283 C0.0227000788,8.50006049 0.909321994,9.37436321 2.5089357,9.98933353 C2.79400927,10.1026341 3.07908285,10.199569 3.39555761,10.2807678 C3.31834638,10.5907263 3.25486365,10.9040907 3.20530333,11.2199036 C2.93623821,12.9521434 3.23670452,14.1827135 4.0445156,14.6522814 C4.28217953,14.7983132 4.5672531,14.8625169 4.86771942,14.8625169 C5.78635824,14.8946187 6.92665253,14.2148153 8.08233957,13.0818096 Z M7.19510195,10.8963675 C7.48017552,10.9127332 7.78125755,10.9127332 8.08172386,10.9127332 C8.38219018,10.9127332 8.6832722,10.9127332 8.96834578,10.8963675 C8.68915886,11.2715308 8.39330815,11.6334228 8.08172386,11.9809058 C7.76996186,11.6335819 7.47410417,11.2716813 7.19510195,10.8963675 Z M5.23160383,9.22896082 C5.38984121,9.50402942 5.53268586,9.76336184 5.70693169,10.0220648 C5.23940565,9.96073341 4.77455869,9.87967532 4.31358072,9.77909803 C4.45642536,9.34226139 4.61466275,8.88842966 4.80430132,8.43522738 C4.93113752,8.69393035 5.07336645,8.9696284 5.23160383,9.22833137 L5.23160383,9.22896082 Z M4.31296501,5.3270151 C4.75627597,5.23008017 5.21559538,5.14888143 5.70631598,5.08404832 C5.5480786,5.34338074 5.38984121,5.6020837 5.23098812,5.87715231 C5.07213503,6.15222091 4.9299061,6.41155333 4.80368561,6.68662193 C4.61040987,6.24499353 4.44646492,5.79055192 4.31296501,5.32638565 L4.31296501,5.3270151 Z M5.18419419,7.54518847 C5.38984121,7.10835183 5.61149669,6.67088574 5.86516907,6.2340491 C6.102833,5.81294865 6.37189813,5.39247765 6.64096325,4.9713772 C7.60082152,4.90614515 8.56385762,4.90614515 9.52371589,4.9713772 C9.80878947,5.39247765 10.0618461,5.81294865 10.2995101,6.2340491 C10.5531825,6.67088574 10.7748379,7.10835183 10.980485,7.54518847 C10.7723365,7.99219426 10.5451269,8.42966036 10.2995101,8.85632783 C10.0618461,9.27742828 9.79278102,9.69789928 9.52371589,10.1189997 C8.56385762,10.1842318 7.60082152,10.1842318 6.64096325,10.1189997 C6.36547425,9.70920551 6.1066557,9.28795602 5.86516907,8.85632783 C5.61967802,8.42958842 5.39247139,7.992128 5.18419419,7.54518847 Z M11.3763863,6.67088574 L10.9490838,5.86141612 C10.7908464,5.58634751 10.6480017,5.3270151 10.4737559,5.06831213 C10.9644765,5.13314524 11.4237959,5.21434398 11.8671069,5.31127891 C11.7248779,5.76448119 11.5660248,6.21768346 11.3763863,6.67151519 L11.3763863,6.67088574 Z M11.3763863,8.41949119 C11.5666406,8.87269347 11.7248779,9.32589575 11.8671069,9.76336184 C11.4237959,9.86029677 10.9644765,9.94149551 10.4737559,10.0063286 C10.6319933,9.7469962 10.7902307,9.48829323 10.9490838,9.21322463 C11.0919284,8.97025785 11.2341573,8.69518925 11.3763863,8.42012064 L11.3763863,8.41949119 Z M11.7402707,14.0373111 C11.6134345,14.1185098 11.4551971,14.1506117 11.2809513,14.1506117 C10.5051571,14.1506117 9.53910864,13.5029101 8.58906863,12.5316724 C9.07312921,11.9952429 9.52271627,11.427343 9.93500995,10.8315344 C10.6496899,10.7718807 11.3590753,10.6582702 12.0573612,10.4916327 C12.1367877,10.783067 12.1841973,11.0745012 12.231607,11.3659354 C12.4532625,12.7419079 12.2790166,13.7295112 11.7408864,14.0373111 L11.7402707,14.0373111 Z M12.5640902,5.50514877 C14.3379498,6.02318415 15.3988175,6.81628814 15.3988175,7.54518847 C15.3988175,8.17652442 14.670433,8.80786037 13.3879097,9.31015956 C13.1342374,9.40709449 12.8497795,9.50465887 12.5647059,9.58522816 C12.3492384,8.88888558 12.0901034,8.20746057 11.7889117,7.54518847 C12.1053865,6.84901941 12.3750673,6.169216 12.5647059,5.50514877 L12.5640902,5.50514877 Z M11.2969597,0.939765278 C11.4712056,0.939765278 11.6134345,0.971867105 11.7562791,1.05306585 C12.2790166,1.36086573 12.4686552,2.33210338 12.2469997,3.72444149 C12.1995901,3.9995101 12.136172,4.29094434 12.0727539,4.59874422 C11.3716464,4.44734593 10.6632104,4.33388752 9.95040269,4.25884251 C9.54292139,3.65932536 9.09307306,3.09109536 8.60446137,2.55870452 C9.55450138,1.60320306 10.5205498,0.939765278 11.296344,0.939765278 L11.2969597,0.939765278 Z M8.96896149,4.19400941 C8.68388791,4.17764377 8.38280589,4.17764377 8.08233957,4.17764377 C7.78187326,4.17764377 7.48079123,4.17764377 7.19571766,4.19400941 C7.48079123,3.80564023 7.78187326,3.44937289 8.08233957,3.10947118 C8.3834216,3.44937289 8.68388791,3.82200587 8.96896149,4.19400941 Z M4.42379275,1.05306585 C4.55062894,0.971867105 4.70886633,0.939765278 4.88311216,0.939765278 C5.65890634,0.939765278 6.6249548,1.58746687 7.57499481,2.55870452 C7.09078765,3.09500447 6.64119269,3.66291442 6.22905349,4.25884251 C5.51437355,4.31849626 4.80498814,4.43210673 4.10670228,4.59874422 C4.02727573,4.30730998 3.97986609,4.01587573 3.93245644,3.72444149 C3.71080096,2.34846902 3.8850468,1.37723136 4.42317704,1.05306585 L4.42379275,1.05306585 Z M3.60058893,9.58522816 C1.82672939,9.06719278 0.765861642,8.2740888 0.765861642,7.54518847 C0.765861642,6.91385252 1.49424617,6.28251657 2.7767694,5.78084682 C3.03044178,5.68391189 3.31489965,5.58634751 3.59997322,5.50577822 C3.81544078,6.2021208 4.07457571,6.88354581 4.3757674,7.54581791 C4.05929263,8.24198697 3.7896118,8.93815602 3.59997322,9.58585761 L3.60058893,9.58522816 Z M3.93307215,11.3659354 C3.98048179,11.0908668 4.04389989,10.7994326 4.10731799,10.4916327 C4.77228442,10.6376646 5.48527621,10.7509651 6.2296692,10.8315344 C6.6371505,11.4310516 7.08699883,11.9992816 7.57561052,12.5316724 C6.62557051,13.4865444 5.65952205,14.1506117 4.88372787,14.1506117 C4.70948204,14.1506117 4.5672531,14.1185098 4.42440846,14.0373111 C3.88566251,13.7295112 3.71203238,12.7419079 3.93368786,11.3659354 L3.93307215,11.3659354 Z"/>
  </g>
</svg>
